<?xml version="1.0" encoding="UTF-8" standalone="no"?>
<svg
   xmlns:dc="http://purl.org/dc/elements/1.1/"
   xmlns:cc="http://creativecommons.org/ns#"
   xmlns:rdf="http://www.w3.org/1999/02/22-rdf-syntax-ns#"
   xmlns:svg="http://www.w3.org/2000/svg"
   xmlns="http://www.w3.org/2000/svg"
   xmlns:xlink="http://www.w3.org/1999/xlink"
   xmlns:sodipodi="http://sodipodi.sourceforge.net/DTD/sodipodi-0.dtd"
   xmlns:inkscape="http://www.inkscape.org/namespaces/inkscape"
   width="50px"
   height="50px"
   viewBox="0 0 170 297"
   version="1.1"
   id="svg8"
   inkscape:version="1.0.1 (3bc2e813f5, 2020-09-07)"
   sodipodi:docname="logo space.svg"
   inkscape:export-filename="C:\Users\Kateřina Funková\Documents\Ilustrace\logo.png"
   inkscape:export-xdpi="96"
   inkscape:export-ydpi="96">
  <defs
     id="defs2">
    <linearGradient
       inkscape:collect="always"
       id="linearGradient1812">
      <stop
         style="stop-color:#a3b8b9;stop-opacity:1"
         offset="0"
         id="stop1808" />
      <stop
         style="stop-color:#dbe2e3;stop-opacity:0;"
         offset="1"
         id="stop1810" />
    </linearGradient>
    <filter
       inkscape:collect="always"
       style="color-interpolation-filters:sRGB"
       id="filter1664"
       x="-0.065669357"
       width="1.1313387"
       y="-0.016338823"
       height="1.0326776">
      <feGaussianBlur
         inkscape:collect="always"
         stdDeviation="0.47885556"
         id="feGaussianBlur1666" />
    </filter>
    <filter
       inkscape:collect="always"
       style="color-interpolation-filters:sRGB"
       id="filter1680"
       x="-0.053309202"
       width="1.1066184"
       y="-0.013683953"
       height="1.0273679">
      <feGaussianBlur
         inkscape:collect="always"
         stdDeviation="0.58771236"
         id="feGaussianBlur1682" />
    </filter>
    <filter
       inkscape:collect="always"
       style="color-interpolation-filters:sRGB"
       id="filter1704"
       x="-0.038627827"
       width="1.0772557"
       y="-0.009767549"
       height="1.0195351">
      <feGaussianBlur
         inkscape:collect="always"
         stdDeviation="0.35193887"
         id="feGaussianBlur1706" />
    </filter>
    <filter
       inkscape:collect="always"
       style="color-interpolation-filters:sRGB"
       id="filter1740"
       x="-0.011560867"
       width="1.0231217"
       y="-0.0012940576"
       height="1.0025881">
      <feGaussianBlur
         inkscape:collect="always"
         stdDeviation="0.02248458"
         id="feGaussianBlur1742" />
    </filter>
    <filter
       inkscape:collect="always"
       style="color-interpolation-filters:sRGB"
       id="filter1764"
       x="-0.094057944"
       width="1.1881159"
       y="-0.010776488"
       height="1.021553">
      <feGaussianBlur
         inkscape:collect="always"
         stdDeviation="0.28558058"
         id="feGaussianBlur1766" />
    </filter>
    <filter
       inkscape:collect="always"
       style="color-interpolation-filters:sRGB"
       id="filter1768"
       x="-0.005760426"
       width="1.0115209"
       y="-0.00064479003"
       height="1.0012896">
      <feGaussianBlur
         inkscape:collect="always"
         stdDeviation="0.011203391"
         id="feGaussianBlur1770" />
    </filter>
    <filter
       inkscape:collect="always"
       style="color-interpolation-filters:sRGB"
       id="filter1776"
       x="-0.052374501"
       width="1.104749"
       y="-0.0057965362"
       height="1.0115931">
      <feGaussianBlur
         inkscape:collect="always"
         stdDeviation="0.14937135"
         id="feGaussianBlur1778" />
    </filter>
    <filter
       inkscape:collect="always"
       style="color-interpolation-filters:sRGB"
       id="filter1796"
       x="-0.0074363741"
       width="1.0148727"
       y="-0.0018069741"
       height="1.0036139">
      <feGaussianBlur
         inkscape:collect="always"
         stdDeviation="0.10059383"
         id="feGaussianBlur1798" />
    </filter>
    <linearGradient
       inkscape:collect="always"
       xlink:href="#linearGradient1812"
       id="linearGradient1814"
       x1="95.964714"
       y1="145.23952"
       x2="90.792625"
       y2="101.74252"
       gradientUnits="userSpaceOnUse" />
    <filter
       inkscape:collect="always"
       style="color-interpolation-filters:sRGB"
       id="filter1824"
       x="-0.021096434"
       width="1.0421929"
       y="-0.0043760393"
       height="1.0087521">
      <feGaussianBlur
         inkscape:collect="always"
         stdDeviation="0.11130301"
         id="feGaussianBlur1826" />
    </filter>
    <filter
       inkscape:collect="always"
       style="color-interpolation-filters:sRGB"
       id="filter1884"
       x="-0.041271118"
       width="1.0825422"
       y="-0.011339687"
       height="1.0226794">
      <feGaussianBlur
         inkscape:collect="always"
         stdDeviation="0.56881675"
         id="feGaussianBlur1886" />
    </filter>
    <filter
       inkscape:collect="always"
       style="color-interpolation-filters:sRGB"
       id="filter1908"
       x="-0.13917572"
       width="1.2783514"
       y="-0.012312424"
       height="1.0246248">
      <feGaussianBlur
         inkscape:collect="always"
         stdDeviation="0.42256807"
         id="feGaussianBlur1910" />
    </filter>
    <filter
       inkscape:collect="always"
       style="color-interpolation-filters:sRGB"
       id="filter1916"
       x="-0.16991405"
       width="1.3398281"
       y="-0.01472027"
       height="1.0294405">
      <feGaussianBlur
         inkscape:collect="always"
         stdDeviation="0.48459251"
         id="feGaussianBlur1918" />
    </filter>
  </defs>
  <sodipodi:namedview
     id="base"
     pagecolor="#ffffff"
     bordercolor="#666666"
     borderopacity="1.0"
     inkscape:pageopacity="0.0"
     inkscape:pageshadow="2"
     inkscape:zoom="1.1580367"
     inkscape:cx="267.21741"
     inkscape:cy="-680.03245"
     inkscape:document-units="mm"
     inkscape:current-layer="layer1"
     inkscape:document-rotation="0"
     showgrid="true"
     inkscape:snap-grids="false"
     inkscape:window-width="1920"
     inkscape:window-height="1017"
     inkscape:window-x="-8"
     inkscape:window-y="-8"
     inkscape:window-maximized="1" />
  <metadata
     id="metadata5">
    <rdf:RDF>
      <cc:Work
         rdf:about="">
        <dc:format>image/svg+xml</dc:format>
        <dc:type
           rdf:resource="http://purl.org/dc/dcmitype/StillImage" />
        <dc:title></dc:title>
      </cc:Work>
    </rdf:RDF>
  </metadata>
  <g
     inkscape:label="Vrstva 1"
     inkscape:groupmode="layer"
     id="layer1">
    <path
       style="fill:#3d8193;fill-opacity:1;stroke:none;stroke-width:0.264583px;stroke-linecap:butt;stroke-linejoin:miter;stroke-opacity:1;filter:url(#filter1796)"
       d="m 90.474705,95.508691 c 0,0 -9.322219,8.752919 -11.447049,11.383809 -2.465356,3.05252 -4.701777,8.07811 -5.527021,12.70122 -1.035172,5.79913 -0.208075,10.52995 0.189269,15.28947 0.731734,8.76494 0.218627,4.60613 0.880142,9.64336 2.518,19.17371 6.761569,53.3607 6.761569,53.3607 l 7.908386,31.22889 7.249709,-27.4507 c 0,0 7.21857,-53.8177 8.88781,-64.35331 0.90166,-5.69098 0.78592,-10.41173 0.33951,-17.6652 -0.45898,-7.45682 -1.58273,-8.617 -5.63154,-13.83041 -4.048805,-5.2134 -9.610745,-10.307829 -9.610745,-10.307829 z"
       id="path896"
       sodipodi:nodetypes="csssscccssscc" />
    <path
       style="fill:#4b96be;fill-opacity:0.80434799;stroke:none;stroke-width:0.264583px;stroke-linecap:butt;stroke-linejoin:miter;stroke-opacity:1;filter:url(#filter1884)"
       d="m 90.449915,99.229287 c 0,0 -7.440567,3.751723 -10.8504,8.857213 -2.986786,4.47208 -4.522556,9.26135 -5.376497,13.42703 -1.071167,5.22536 -1.385531,10.07036 -0.974371,14.35896 0.757178,7.89771 0.05906,2.98581 0.743572,7.52463 2.605555,17.2766 6.996682,51.9769 6.996682,51.9769 l 8.183381,24.24309 8.67201,-27.06378 c 0,0 5.965008,-43.39775 7.692288,-52.89094 0.93302,-5.12789 0.64608,-8.50811 0.1841,-15.0439 -0.47494,-6.71902 -1.70195,-10.36306 -4.60695,-16.11238 -2.996197,-5.92981 -10.663815,-9.276823 -10.663815,-9.276823 z"
       id="path1490"
       sodipodi:nodetypes="csssscccsssc" />
    <path
       style="fill:#4b96d3;fill-opacity:1;stroke:none;stroke-width:0.264582px;stroke-linecap:butt;stroke-linejoin:miter;stroke-opacity:1;filter:url(#filter1908)"
       d="m 58.457762,149.02803 c 0.07139,-11.02719 4.822121,-33.49735 4.822121,-33.49735 0,0 2.04698,21.53565 2.388758,32.04442 0.545858,16.7838 -2.08907,50.32469 -2.08907,50.32469 0,0 -5.228198,-32.43913 -5.121809,-48.87176 z"
       id="path1488"
       sodipodi:nodetypes="scscs" />
    <path
       style="fill:#4b96d3;fill-opacity:1;stroke:none;stroke-width:0.264584px;stroke-linecap:butt;stroke-linejoin:miter;stroke-opacity:1;filter:url(#filter1916)"
       d="m 111.8335,148.69711 c 0.0671,-10.57723 4.52953,-32.13053 4.52953,-32.13053 0,0 1.92277,20.65693 2.2438,30.73688 0.51275,16.09899 -1.96231,48.27132 -1.96231,48.27132 0,0 -4.91095,-31.11552 -4.81102,-46.87767 z"
       id="path1486"
       sodipodi:nodetypes="scscs" />
    <path
       style="fill:#6eb5d3;fill-opacity:1;stroke:none;stroke-width:0.264584px;stroke-linecap:butt;stroke-linejoin:miter;stroke-opacity:1;filter:url(#filter1776)"
       d="m 111.8335,148.69711 c 0.0671,-8.27961 4.52953,-25.15104 4.52953,-25.15104 0,0 1.92277,16.16976 2.2438,24.06012 0.51275,12.60191 -1.96231,37.78565 -1.96231,37.78565 0,0 -4.91095,-24.3565 -4.81102,-36.69473 z"
       id="path884"
       sodipodi:nodetypes="scscs" />
    <path
       style="fill:#6eb5d3;stroke:none;stroke-width:0.264583px;stroke-linecap:butt;stroke-linejoin:miter;stroke-opacity:1;fill-opacity:1;filter:url(#filter1764)"
       d="m 58.457762,149.02803 c 0.07139,-8.51458 4.822121,-25.86477 4.822121,-25.86477 0,0 2.04698,16.62862 2.388758,24.7429 0.545858,12.95951 -2.08907,38.85791 -2.08907,38.85791 0,0 -5.228198,-25.04768 -5.121809,-37.73604 z"
       id="path880"
       sodipodi:nodetypes="scscs" />
    <path
       style="fill:#3298b2;fill-opacity:1;stroke:none;stroke-width:0.26979px;stroke-linecap:butt;stroke-linejoin:miter;stroke-opacity:1;filter:url(#filter1704)"
       d="m 90.705836,101.98029 c 0,0 -4.69211,4.74634 -6.94622,8.41366 -1.97444,3.21231 -3.21623,4.60104 -3.78074,7.59328 -0.7081,3.75339 -0.91591,7.23361 -0.64411,10.31414 0.50054,5.67299 0.0391,2.14474 0.49155,5.40501 1.72242,12.4099 4.62522,37.33539 4.62522,37.33539 l 5.40971,17.41398 5.73271,-19.44011 c 0,0 3.94324,-31.17293 5.085074,-37.99195 0.61677,-3.6834 0.4271,-6.11145 0.1217,-10.80615 -0.31396,-4.82633 -1.635224,-8.60962 -4.404804,-11.98393 -2.76956,-3.37429 -5.69009,-6.25332 -5.69009,-6.25332 z"
       id="path894"
       sodipodi:nodetypes="csssscccsssc"
       transform="matrix(1,0,0,0.96177557,0,3.8944273)" />
    <path
       style="fill:#5fbcd3;fill-opacity:1;stroke:none;stroke-width:0.264583px;stroke-linecap:butt;stroke-linejoin:miter;stroke-opacity:1;filter:url(#filter1680)"
       d="m 90.363121,102.09453 c 0,0 -5.677584,5.65759 -8.405117,10.02897 -2.389135,3.82905 -3.891735,5.48439 -4.574803,9.05111 -0.856828,4.474 -1.108288,8.62236 -0.7794,12.29431 0.605668,6.76213 0.04724,2.55649 0.594784,6.44269 2.084189,14.79245 5.596655,44.50331 5.596655,44.50331 l 6.545897,20.75725 6.936759,-23.17237 c 0,0 4.771414,-37.15773 6.153074,-45.28591 0.74631,-4.39057 0.51679,-7.28476 0.14725,-12.88078 -0.3799,-5.75291 -1.97866,-10.26256 -5.329919,-14.28469 -3.35126,-4.02211 -6.88518,-7.45389 -6.88518,-7.45389 z"
       id="path886"
       sodipodi:nodetypes="csssscccsssc" />
    <path
       style="fill:#5fc0d3;stroke:none;stroke-width:0.264583px;stroke-linecap:butt;stroke-linejoin:miter;stroke-opacity:1;fill-opacity:1;filter:url(#filter1740)"
       d="m 59.953894,146.59626 c 0.04573,-5.58268 3.088867,-16.95854 3.088867,-16.95854 0,0 1.311218,10.90275 1.530148,16.22297 0.349656,8.49706 -1.338179,25.47764 -1.338179,25.47764 0,0 -3.348985,-16.4228 -3.280836,-24.74207 z"
       id="path878"
       sodipodi:nodetypes="scscs" />
    <path
       style="fill:#5fc0d3;stroke:none;stroke-width:0.264583px;stroke-linecap:butt;stroke-linejoin:miter;stroke-opacity:1;fill-opacity:1;filter:url(#filter1768)"
       d="m 113.27416,147.06398 c 0.0457,-5.58268 3.08887,-16.95854 3.08887,-16.95854 0,0 1.31122,10.90275 1.53015,16.22297 0.34966,8.49706 -1.33818,25.47764 -1.33818,25.47764 0,0 -3.34898,-16.4228 -3.28084,-24.74207 z"
       id="path882"
       sodipodi:nodetypes="scscs" />
    <path
       style="fill:#ffffff;stroke:none;stroke-width:0.264583px;stroke-linecap:butt;stroke-linejoin:miter;stroke-opacity:1"
       d="m 48.85156,211.26225 c 0,0 9.43334,-46.52285 11.516138,-54.21914 1.859914,-6.8727 6.703589,-13.01195 9.42274,-16.17084 7.158794,-8.3165 32.982252,-7.58422 38.270522,-3.48429 5.94885,4.61207 7.29042,7.89869 10.86519,16.29042 3.12958,7.34665 15.7343,58.39433 15.7343,58.39433 0,0 -15.29972,-47.22 -16.83471,-51.25796 -2.62793,-6.91312 -7.73927,-13.37095 -10.46131,-15.19471 -4.31143,-2.88864 -11.752224,-3.19797 -16.338349,-2.90356 -3.38659,0.21741 -13.664301,-1.6972 -20.592658,6.14828 -5.056131,5.72542 -6.442565,11.3991 -9.537922,17.05472 -2.389108,4.36522 -12.043941,45.34275 -12.043941,45.34275 z"
       id="path859"
       sodipodi:nodetypes="csssscsssssc" />
    <path
       style="fill:#2c89a0;fill-opacity:0.804348;stroke:none;stroke-width:0.264583px;stroke-linecap:butt;stroke-linejoin:miter;stroke-opacity:1"
       d="m 60.477188,163.22399 c 1.64649,-4.16425 3.231645,-11.42825 6.674485,-14.79638 3.27865,-3.2075 4.041957,-5.3457 9.986587,-6.99708 6.15508,-1.70984 13.113675,-3.08437 23.25475,-0.97704 8.01809,1.66622 14.22237,7.4505 17.76159,17.6047 8.44625,24.2328 16.50585,54.01454 16.50585,54.01454 0,0 -12.24796,-38.56553 -16.45147,-49.88697 -2.1695,-5.84317 -6.76263,-15.80721 -14.54598,-18.24271 -4.252298,-1.33059 -12.668197,-2.08992 -17.481837,-1.91641 -3.55459,0.12813 -6.429401,0.89085 -12.714969,4.17796 -5.734983,2.99917 -9.078242,13.27486 -11.455102,18.37806 -4.01118,8.61216 -13.159532,46.67959 -13.159532,46.67959 0,0 10.495888,-45.18095 11.625628,-48.03826 z"
       id="path863"
       sodipodi:nodetypes="ssssscssssscs" />
    <path
       style="fill:#85c3d2;fill-opacity:0.782609;stroke:none;stroke-width:0.257172px;stroke-linecap:butt;stroke-linejoin:miter;stroke-opacity:1;filter:url(#filter1664)"
       d="m 91.048548,104.49352 c 0,0 -3.75528,3.86065 -5.55934,6.84364 -1.58022,2.61287 -2.57407,3.74247 -3.02587,6.17634 -0.56673,3.053 -0.73305,5.88379 -0.51551,8.38948 0.4006,4.61439 0.0313,1.74453 0.3934,4.39642 1.37853,10.09417 3.70175,30.36846 3.70175,30.36846 l 4.32961,14.16447 4.58812,-15.81252 c 0,0 3.15593,-25.35594 4.06979,-30.9025 0.493627,-2.99607 0.341827,-4.97104 0.0974,-8.78968 -0.25127,-3.92572 -1.30873,-7.00304 -3.52533,-9.74769 -2.2166,-2.74463 -4.55402,-5.08642 -4.55402,-5.08642 z"
       id="path1492"
       sodipodi:nodetypes="csssscccsssc"
       transform="matrix(1,0,0,1.0584679,0,-6.1095186)" />
    <path
       style="fill:#ffffff;fill-opacity:1;stroke:none;stroke-width:0.264583px;stroke-linecap:butt;stroke-linejoin:miter;stroke-opacity:1"
       d="m 91.848208,106.77828 -8.504465,10.39434 -4.724702,5.66965 0.566966,10.39434 2.83482,34.77381 8.88244,-28.72619 6.803571,28.5372 5.858622,-42.14434 z"
       id="path861"
       sodipodi:nodetypes="ccccccccc" />
    <path
       style="opacity:0.997409;fill:url(#linearGradient1814);fill-opacity:1;stroke:none;stroke-width:0.264583px;stroke-linecap:butt;stroke-linejoin:miter;stroke-opacity:1;filter:url(#filter1824)"
       d="m 91.848213,106.77828 v 0 l -0.141327,5.65612 -0.640527,19.03301 -0.163092,7.81682 v 0 l 6.803571,28.5372 5.858632,-42.14434 z"
       id="path892"
       sodipodi:nodetypes="ccccccccc" />
  </g>
</svg>
