<?xml version="1.0" encoding="UTF-8"?>
<svg width="512" height="512" viewBox="0 0 515.56 515.56" xmlns="http://www.w3.org/2000/svg">
  <path fill="white" d="m496.68 212.21c25.167 25.167 25.167 65.971 0 91.138s-65.971 25.167-91.138 0-25.167-65.971 0-91.138 65.971-25.167 91.138 0"/>
  <path fill="white" d="m303.35 212.21c25.167 25.167 25.167 65.971 0 91.138s-65.971 25.167-91.138 0-25.167-65.971 0-91.138 65.971-25.167 91.138 0"/>
  <path fill="white" d="m110.01 212.21c25.167 25.167 25.167 65.971 0 91.138s-65.971 25.167-91.138 0-25.167-65.971 0-91.138 65.971-25.167 91.138 0"/>
</svg>
